Coordinates
version=1
nRows=8
nColumns=36
inDegrees=yes

Units are S.I. units (second, meters, Newtons, ...)
If the header above contains a line with 'inDegrees', this indicates whether rotational values are in degrees (yes) or radians (no).

endheader
time	pelvis_tilt	pelvis_list	pelvis_rotation	pelvis_tx	pelvis_ty	pelvis_tz	hip_flexion_r	hip_adduction_r	hip_rotation_r	knee_angle_r	knee_angle_r_beta	ankle_angle_r	subtalar_angle_r	mtp_angle_r	hip_flexion_l	hip_adduction_l	hip_rotation_l	knee_angle_l	knee_angle_l_beta	ankle_angle_l	subtalar_angle_l	mtp_angle_l	lumbar_extension	lumbar_bending	lumbar_rotation	arm_flex_r	arm_add_r	arm_rot_r	elbow_flex_r	pro_sup_r	arm_flex_l	arm_add_l	arm_rot_l	elbow_flex_l	pro_sup_l
      1.46666670	     -9.92921120	     -3.00340412	     10.79935230	      0.57296772	      0.90523132	     -0.00765329	     11.69393573	     -4.68881616	     -4.72671999	      6.57589158	      0.11477096	      1.67623266	    -12.68735988	     -7.49999987	     13.11698046	     -8.37531130	     -3.49093227	      8.31683990	      0.14515624	      5.50372256	     -4.41020089	     -7.49999987	      1.89470844	      1.10195267	      0.51254888	     49.12089700	      2.36682434	     55.80104871	    130.70327169	     92.83356683	     44.65304359	      2.50389862	     64.10715179	    122.98697631	    101.47283032
      1.48333330	    -10.41856357	     -3.15308544	     10.57177906	      0.57348546	      0.90260533	     -0.00774497	     13.00434322	     -4.73615071	     -4.63604009	      7.84615528	      0.13694124	      1.80048409	    -13.05977228	     -7.49999987	     14.37051453	     -8.55672052	     -3.50449598	      9.55397647	      0.16674835	      5.93141362	     -4.87731793	     -7.49999987	      1.96449554	      1.24812769	      0.83741180	     49.43071540	      2.55057172	     55.89251090	    130.81295720	     91.04829184	     44.79021237	      2.75473585	     64.66435982	    123.61575637	     99.48937707
      1.50000000	    -11.00835094	     -3.30945542	     10.34154714	      0.57444302	      0.90032624	     -0.00796771	     14.43835292	     -4.83714969	     -4.66610015	      9.25256773	      0.16148777	      2.21947284	    -13.10257312	     -7.49999987	     15.76250319	     -8.73104253	     -3.65638536	     10.92577577	      0.19069076	      6.46341517	     -5.21523892	     -7.49999987	      2.19464360	      1.41704851	      1.21977345	     49.40873216	      2.36166748	     56.05249276	    131.03455719	     94.65356842	     44.54745571	      2.92992012	     64.49150517	    124.19898469	    103.84969222
      1.51666670	    -11.51379976	     -3.45873151	     10.24450533	      0.57038288	      0.89487267	     -0.00998891	     15.99704892	     -5.01266283	     -4.82769697	     11.04802567	      0.19282442	      2.75585135	    -13.08916299	     -7.49999987	     17.31414647	     -8.86801687	     -3.58162853	     12.58468331	      0.21964416	      7.33026617	     -5.55811624	     -7.49999987	      2.11224749	      1.60799150	      1.40287822	     49.74421510	      2.02800339	     56.55670759	    131.35771664	     93.98722009	     44.69313519	      3.26678697	     64.57339894	    124.71544776	    102.86454974
      1.53333330	    -12.39441058	     -3.59369838	     10.08024500	      0.57163474	      0.89033557	     -0.01055831	     18.11755447	     -5.30411732	     -4.88708822	     13.14801139	      0.22947609	      3.38731646	    -13.17270582	     -7.49999987	     19.27184519	     -8.92646173	     -3.62090975	     14.40055210	      0.25133705	      8.13433570	     -5.99295880	     -7.49999987	      2.47384764	      1.78430627	      1.84248762	     49.91329673	      1.67330547	     57.98631001	    132.25610707	     94.28352616	     44.54915747	      3.52666446	     64.99158140	    125.04714829	    103.10201880
      1.55000000	    -13.02274201	     -3.66604053	      9.95002145	      0.57208677	      0.88542233	     -0.01036275	     19.87327173	     -5.60205716	     -5.00008032	     15.12228762	      0.26393371	      4.23130711	    -13.02880649	     -7.49999987	     20.92692518	     -8.97570699	     -3.62551012	     16.20582058	      0.28284493	      9.02904582	     -6.40954089	     -7.49999987	      2.47108121	      1.90647991	      2.31758896	     50.09929454	      1.14719354	     58.19247121	    132.32723826	     94.58451131	     44.36210602	      3.64573994	     65.59746195	    125.58722435	    103.39299085
      1.56666670	    -13.66071133	     -3.70916588	      9.86144227	      0.57307257	      0.88323032	     -0.01057134	     21.63214285	     -5.94931993	     -5.12208667	     17.16004599	      0.29949930	      5.24138868	    -12.75518327	     -7.49999987	     22.56899345	     -8.97032811	     -3.73962554	     17.93922647	      0.31309857	      9.77217686	     -6.89106487	     -7.49999987	      2.34064495	      1.84555354	      2.83508606	     49.87172396	      0.30091403	     57.41576846	    132.00474552	     96.58650520	     43.94082071	      3.52435902	     66.03985042	    125.67166546	    105.49316419
      1.58333330	    -14.39653053	     -3.80084304	      9.83236237	      0.56456184	      0.87885998	     -0.00935220	     23.70299996	     -6.32239898	     -5.31813487	     19.44447737	      0.33937015	      6.28585702	    -12.35785556	     -7.49999987	     24.58884512	     -9.00644677	     -3.79187336	     19.96862005	      0.34851817	     10.73255117	     -7.10158705	     -7.49999987	      2.14041451	      1.94597978	      2.89136041	     50.53911281	      0.03274510	     57.07867172	    131.31935556	     96.75207253	     44.24677519	      3.54556303	     66.49721040	    125.94345570	    105.51306047
